# xmcd
#
# Track frame offsets: 
#        150
#        16087
#        36975
#        49725
#        62487
#        82745
#        103440
#        121712
#        137865
#        151487
#        179050
#        195445
#        209870
#        226180
#        245045
#        262375
#
# Disc length: 3860 seconds
#
# Revision: 6
# Processed by: cddbd v1.5.2PL0 Copyright (c) Steve Scherf et al.
# Submitted via: ExactAudioCopyFreeDBPlugin 1.0
#
DISCID=e80f1210
DTITLE=Various Artist - Truckin´ My Blues Away
DYEAR=1993
DGENRE=Blues
TTITLE0=Will Smokey Logg - El Madrid
TTITLE1=Pat Mason - Queen Of The Boucherie
TTITLE2=Cold Blue Steel - The Girl That Radiates
TTITLE3=Jim Suhler And Monkey Beat - Where Were You When The Lights We
TTITLE3=nt Out?
TTITLE4=Jim Suhler And Monkey Beat - Doncha Hang Around My Door
TTITLE5=Will Smokey Logg - That's Where The Money Goes
TTITLE6=Robert Ealy - Dog Don't Bite
TTITLE7=Mike Morgan - Well All Right Then
TTITLE8=Jimmy Spacek and Heavy Traffic - Good Lookin Lady
TTITLE9=Will Smokey Logg - Credit Didn't Go Through
TTITLE10=Jack Morgan Band - Honeyman
TTITLE11=Class Action - Midnight Moon
TTITLE12=Robert Ealy - Love Me Baby
TTITLE13=Michael Hardie - Pretenders Blues
TTITLE14=Will Smokey Logg - Tom Cat
TTITLE15=Bugs Henderson - Rock Me Baby
EXTD=
EXTT0=
EXTT1=
EXTT2=
EXTT3=
EXTT4=
EXTT5=
EXTT6=
EXTT7=
EXTT8=
EXTT9=
EXTT10=
EXTT11=
EXTT12=
EXTT13=
EXTT14=
EXTT15=
PLAYORDER=
